<svg xmlns="http://www.w3.org/2000/svg" version="1.1" xmlns:xlink="http://www.w3.org/1999/xlink" xmlns:svgjs="http://svgjs.dev/svgjs" width="1500" height="200" viewBox="0 0 1500 200"><g transform="matrix(1,0,0,1,-0.9090909090909918,-1.4458725745712115)"><svg viewBox="0 0 396 53" data-background-color="#dedede" preserveAspectRatio="xMidYMid meet" height="200" width="1500" xmlns="http://www.w3.org/2000/svg" xmlns:xlink="http://www.w3.org/1999/xlink"><g id="tight-bounds" transform="matrix(1,0,0,1,0.2400000000000091,0.38315623226137063)"><svg viewBox="0 0 395.52 52.233687535477266" height="52.233687535477266" width="395.52"><g><svg viewBox="0 0 472.30179294489494 62.37374665030674" height="52.233687535477266" width="395.52"><g transform="matrix(1,0,0,1,76.78179294489499,8.620394797546012)"><svg viewBox="0 0 395.52 45.13295705521472" height="45.13295705521472" width="395.52"><g id="textblocktransform"><svg viewBox="0 0 395.52 45.13295705521472" height="45.13295705521472" width="395.52" id="textblock"><g><svg viewBox="0 0 395.52 45.13295705521472" height="45.13295705521472" width="395.52"><g transform="matrix(1,0,0,1,0,0)"><svg width="395.52" viewBox="3.53 -39.25 346.34000000000003 39.53" height="45.13295705521472" data-palette-color="#000000"><path d="M3.53-33.75L3.53 0 8.63 0 8.63-33.75 3.53-33.75ZM16.27-39.25L16.27 0 21.35 0 21.35-39.25 16.27-39.25ZM27.75-39.25L27.75 0 32.82 0 32.82-39.25 27.75-39.25ZM57.12-5L58.24 0 62.17 0 62.17-29.63 57.12-29.63 57.12-5ZM43.47-12.75L43.47-29.65 38.42-29.65 38.42-12.55Q38.42-6.5 40.53-3.11 42.64 0.28 47.84 0.28L47.84 0.28Q53.24 0.28 56.43-2.96 59.62-6.2 59.62-9.83L59.62-9.83 57.14-11.3Q57.14-7.8 54.96-5.54 52.77-3.28 49.62-3.28L49.62-3.28Q46.49-3.28 44.98-5.43 43.47-7.58 43.47-12.75L43.47-12.75ZM80.09 0.2L80.09 0.2Q85.94 0.2 88.99-1.8 92.04-3.8 92.04-7.9L92.04-7.9Q92.04-12.35 88.98-14.04 85.92-15.73 81.39-16.65L81.39-16.65Q77.57-17.53 75.08-18.48 72.59-19.43 72.59-22.03L72.59-22.03Q72.59-24.1 74.23-25.33 75.87-26.55 79.24-26.55L79.24-26.55Q82.74-26.55 84.78-24.85 86.82-23.15 87.24-19.88L87.24-19.88 91.72-21.4Q90.99-25.95 87.85-27.91 84.72-29.88 79.29-29.88L79.29-29.88Q73.84-29.88 70.72-27.86 67.59-25.85 67.59-22L67.59-22Q67.59-17.78 70.43-15.96 73.27-14.15 77.79-13.18L77.79-13.18Q81.77-12.3 84.39-11.34 87.02-10.38 87.02-7.55L87.02-7.55Q87.02-5.58 85.3-4.36 83.59-3.15 80.17-3.15L80.17-3.15Q76.54-3.15 74.4-4.78 72.27-6.4 71.84-10.15L71.84-10.15 67.37-8.63Q68.14-3.65 71.44-1.73 74.74 0.2 80.09 0.2ZM97.71-29.65L97.71 0 102.79 0 102.79-29.65 97.71-29.65ZM102.79-37.75L97.71-37.75 97.71-33.27 102.79-33.27 102.79-37.75ZM121.34 0.2L121.34 0.2Q127.99 0.2 131.17-3.49 134.36-7.18 134.36-14.9L134.36-14.9Q134.36-22.63 131.17-26.29 127.99-29.95 121.34-29.95L121.34-29.95Q114.71-29.95 111.51-26.29 108.31-22.63 108.31-14.9L108.31-14.9Q108.31-7.18 111.51-3.49 114.71 0.2 121.34 0.2ZM121.34-3.28L121.34-3.28Q117.86-3.28 115.61-5.71 113.36-8.15 113.36-14.88L113.36-14.88Q113.36-21.6 115.61-24.03 117.86-26.45 121.34-26.45L121.34-26.45Q124.81-26.45 127.06-24.03 129.31-21.6 129.31-14.88L129.31-14.88Q129.31-8.15 127.06-5.71 124.81-3.28 121.34-3.28ZM139.26-29.63L139.26 0 144.31 0 144.31-23.9 143.23-29.63 139.26-29.63ZM157.83-16.93L157.83 0 162.88 0 162.88-16.95Q162.88-23 160.75-26.46 158.61-29.93 153.46-29.93L153.46-29.93Q148.28-29.93 145-26.7 141.71-23.48 141.71-19.83L141.71-19.83 144.16-18.28Q144.16-21.78 146.33-24.08 148.51-26.38 151.63-26.38L151.63-26.38Q154.76-26.38 156.3-24.23 157.83-22.08 157.83-16.93L157.83-16.93ZM193.08 0.2L193.08 0.2Q200.43 0.2 203.29-2.58 206.15-5.35 206.15-9.38L206.15-9.38Q206.15-13.68 203.52-15.43 200.88-17.18 194.53-18.73L194.53-18.73Q189.98-19.85 187.42-21.1 184.85-22.35 184.85-25.28L184.85-25.28Q184.85-27.58 186.95-29.04 189.05-30.5 192.95-30.5L192.95-30.5Q196.8-30.5 198.9-28.8 201-27.1 201-21.53L201-21.53 206.13-21.53Q206.13-27.9 203.27-30.96 200.4-34.02 193-34.02L193-34.02Q185.75-34.02 182.83-31.3 179.9-28.58 179.9-24.73L179.9-24.73Q179.9-20.5 182.57-18.63 185.23-16.75 191.4-15.23L191.4-15.23Q196.03-14.13 198.57-12.91 201.1-11.7 201.1-8.68L201.1-8.68Q201.1-6.2 199.03-4.76 196.95-3.33 193.03-3.33L193.03-3.33Q189.1-3.33 187.05-5.05 185-6.78 185-12.53L185-12.53 179.88-12.53Q179.88-5.78 182.72-2.79 185.55 0.2 193.08 0.2ZM223.4 0.25L223.4 0.25 223.4-3.1Q219.6-3.1 217.48-5.88L217.48-5.88Q215.33-8.6 215.33-14.88L215.33-14.88Q215.33-21.5 217.55-24.05L217.55-24.05Q219.75-26.58 223.33-26.58L223.33-26.58Q227-26.58 229.05-24.18L229.05-24.18Q230.83-21.93 231.03-16.48L231.03-16.48 214.78-16.48 214.78-13.33 236.03-13.33Q236.13-14.08 236.13-14.95L236.13-14.95Q236.13-22.38 233.18-26.15L233.18-26.15Q230.2-29.93 223.33-29.93L223.33-29.93Q216.65-29.93 213.55-26.15L213.55-26.15Q210.43-22.4 210.43-14.88L210.43-14.88Q210.43-7.78 213.48-3.75L213.48-3.75Q216.5 0.25 223.4 0.25ZM223.4-3.1L223.4-3.1 223.4 0.25Q227.15 0.25 229.6-0.73L229.6-0.73Q232.05-1.7 233.6-3.85L233.6-3.85Q235.13-5.98 235.55-9.03L235.55-9.03 231-10.25Q230.58-8.05 229.73-6.3L229.73-6.3Q228.83-4.55 227.2-3.83L227.2-3.83Q225.58-3.1 223.4-3.1ZM258.9-15.83L258.9-15.83 263.95-15.83Q263.95-23.15 261.99-26.51 260.02-29.88 254.97-29.88L254.97-29.88Q250.07-29.88 247.17-27.2 244.27-24.53 244.27-20.73L244.27-20.73 246.22-19.3Q246.22-22.03 248.07-24.19 249.92-26.35 253.15-26.35L253.15-26.35Q255.97-26.35 257.44-24.14 258.9-21.93 258.9-15.83ZM241.2-29.63L241.2 0 246.25 0 246.25-23.9 245.17-29.63 241.2-29.63ZM268.02-29.65L277.37 0 284.32 0 293.72-29.65 288.42-29.65 280.9-3.53 280.85-3.53 273.35-29.65 268.02-29.65ZM309.32 0.25L309.32 0.25 309.32-3.1Q305.52-3.1 303.39-5.88L303.39-5.88Q301.24-8.6 301.24-14.88L301.24-14.88Q301.24-21.5 303.47-24.05L303.47-24.05Q305.67-26.58 309.24-26.58L309.24-26.58Q312.92-26.58 314.97-24.18L314.97-24.18Q316.74-21.93 316.94-16.48L316.94-16.48 300.69-16.48 300.69-13.33 321.94-13.33Q322.04-14.08 322.04-14.95L322.04-14.95Q322.04-22.38 319.09-26.15L319.09-26.15Q316.12-29.93 309.24-29.93L309.24-29.93Q302.57-29.93 299.47-26.15L299.47-26.15Q296.34-22.4 296.34-14.88L296.34-14.88Q296.34-7.78 299.39-3.75L299.39-3.75Q302.42 0.25 309.32 0.25ZM309.32-3.1L309.32-3.1 309.32 0.25Q313.07 0.25 315.52-0.73L315.52-0.73Q317.97-1.7 319.52-3.85L319.52-3.85Q321.04-5.98 321.47-9.03L321.47-9.03 316.92-10.25Q316.49-8.05 315.64-6.3L315.64-6.3Q314.74-4.55 313.12-3.83L313.12-3.83Q311.49-3.1 309.32-3.1ZM344.82-15.83L344.82-15.83 349.87-15.83Q349.87-23.15 347.9-26.51 345.94-29.88 340.89-29.88L340.89-29.88Q335.99-29.88 333.09-27.2 330.19-24.53 330.19-20.73L330.19-20.73 332.14-19.3Q332.14-22.03 333.99-24.19 335.84-26.35 339.07-26.35L339.07-26.35Q341.89-26.35 343.35-24.14 344.82-21.93 344.82-15.83ZM327.12-29.63L327.12 0 332.17 0 332.17-23.9 331.09-29.63 327.12-29.63Z" opacity="1" transform="matrix(1,0,0,1,0,0)" fill="#000000" class="wordmark-text-0" data-fill-palette-color="primary" id="text-0"></path></svg></g></svg></g></svg></g></svg></g><g><svg viewBox="0 0 66.12698497512812 62.37374665030674" height="62.37374665030674" width="66.12698497512812"><g><svg xmlns="http://www.w3.org/2000/svg" xmlns:xlink="http://www.w3.org/1999/xlink" version="1.1" x="0" y="0" viewBox="12.208 14.353 75.584 71.29400000000001" enable-background="new 0 0 100 100" xml:space="preserve" height="62.37374665030674" width="66.12698497512812" class="icon-icon-0" data-fill-palette-color="accent" id="icon-0"><path fill="#61777f" d="M81.653 48.936C78.609 48.936 76.082 51.165 75.602 54.075H73.582A3.02 3.02 0 0 1 71.241 52.972L67.97 49.013A5.38 5.38 0 0 0 63.814 47.056H60.827V39.232A4.93 4.93 0 0 0 55.901 34.306H51.062V33.164C51.062 32.582 51.289 32.033 51.7 31.62L55.473 27.834A2.2 2.2 0 0 1 57.022 27.191H62.666C63.146 30.101 65.672 32.33 68.717 32.33A6.146 6.146 0 0 0 74.856 26.191 6.146 6.146 0 0 0 68.717 20.051C65.673 20.051 63.146 22.28 62.666 25.191H57.022A4.22 4.22 0 0 0 54.057 26.421L50.283 30.208A4.17 4.17 0 0 0 49.062 33.163V34.305H44.899V30.862A5.7 5.7 0 0 0 43.225 26.811L37.614 21.181A5.78 5.78 0 0 0 33.55 19.493H24.398C23.918 16.582 21.392 14.353 18.347 14.353A6.146 6.146 0 0 0 12.208 20.493 6.146 6.146 0 0 0 18.347 26.632C21.391 26.632 23.918 24.403 24.398 21.493H33.55C34.536 21.493 35.502 21.893 36.198 22.593L41.809 28.223A3.7 3.7 0 0 1 42.899 30.862V34.305H37.603A4.93 4.93 0 0 0 32.678 39.231V42.397H29.723A5.47 5.47 0 0 0 26.035 43.823L20.625 48.743A5.5 5.5 0 0 0 18.831 52.799V64.316C15.759 64.65 13.359 67.258 13.359 70.418A6.146 6.146 0 0 0 19.499 76.557 6.146 6.146 0 0 0 25.638 70.418C25.638 67.49 23.577 65.039 20.831 64.428V52.799C20.831 51.82 21.246 50.882 21.971 50.224L27.381 45.303A3.47 3.47 0 0 1 29.723 44.398H32.678V57.53A4.93 4.93 0 0 0 37.603 62.455H44.356V73.457C41.445 73.937 39.216 76.463 39.216 79.507 39.216 82.893 41.97 85.647 45.356 85.647S51.496 82.893 51.496 79.507C51.496 76.463 49.267 73.937 46.356 73.457V62.454H55.901A4.93 4.93 0 0 0 60.823 57.565C60.909 57.589 60.993 57.618 61.086 57.618H62.513C63.219 57.618 63.896 57.919 64.376 58.45L70.574 65.169A6.1 6.1 0 0 0 69.029 69.227 6.146 6.146 0 0 0 75.169 75.367 6.146 6.146 0 0 0 81.308 69.227 6.146 6.146 0 0 0 75.169 63.088 6.1 6.1 0 0 0 72.127 63.902L65.854 57.101A4.52 4.52 0 0 0 62.513 55.618H61.086C60.994 55.618 60.911 55.647 60.826 55.67V49.055H63.813C64.828 49.055 65.781 49.504 66.428 50.286L69.699 54.244A5.02 5.02 0 0 0 73.582 56.073H75.602C76.082 58.984 78.608 61.213 81.653 61.213A6.146 6.146 0 0 0 87.792 55.073 6.145 6.145 0 0 0 81.653 48.936M68.717 22.052C70.999 22.052 72.856 23.909 72.856 26.192S71 30.331 68.717 30.331A4.14 4.14 0 0 1 64.586 26.279C64.589 26.249 64.604 26.223 64.604 26.192S64.589 26.135 64.586 26.105A4.14 4.14 0 0 1 68.717 22.052M18.347 24.633C16.065 24.633 14.208 22.777 14.208 20.494S16.064 16.354 18.347 16.354 22.487 18.211 22.487 20.494 20.629 24.633 18.347 24.633M23.639 70.417C23.639 72.699 21.783 74.556 19.5 74.556S15.36 72.7 15.36 70.417 17.217 66.277 19.5 66.277 23.639 68.135 23.639 70.417M49.496 79.506C49.496 81.788 47.639 83.646 45.356 83.646S41.216 81.789 41.216 79.506 43.073 75.367 45.356 75.367 49.496 77.224 49.496 79.506M79.309 69.228C79.309 71.51 77.453 73.368 75.17 73.368S71.03 71.511 71.03 69.228C71.03 68.041 71.54 66.976 72.343 66.221A1 1 0 0 0 72.712 66.013C72.784 65.947 72.828 65.866 72.876 65.786A4.1 4.1 0 0 1 75.169 65.089 4.144 4.144 0 0 1 79.309 69.228M58.827 57.529A2.93 2.93 0 0 1 55.901 60.454H37.604A2.93 2.93 0 0 1 34.679 57.529V39.231A2.93 2.93 0 0 1 37.604 36.305H55.902A2.93 2.93 0 0 1 58.828 39.231V57.529zM81.653 59.214C79.371 59.214 77.513 57.357 77.513 55.074S79.37 50.935 81.653 50.935 85.792 52.791 85.792 55.074 83.936 59.214 81.653 59.214" data-fill-palette-color="accent"></path><rect x="38.961" y="40.639" fill="#61777f" width="3" height="3" data-fill-palette-color="accent"></rect><rect x="45.215" y="40.639" fill="#61777f" width="3" height="3" data-fill-palette-color="accent"></rect><rect x="45.215" y="46.88" fill="#61777f" width="3" height="3" data-fill-palette-color="accent"></rect><rect x="51.544" y="46.88" fill="#61777f" width="3" height="3" data-fill-palette-color="accent"></rect><rect x="38.961" y="53.047" fill="#61777f" width="3" height="3" data-fill-palette-color="accent"></rect><rect x="51.544" y="53.047" fill="#61777f" width="3" height="3" data-fill-palette-color="accent"></rect></svg></g></svg></g></svg></g><defs></defs></svg><rect width="395.52" height="52.233687535477266" fill="none" stroke="none" visibility="hidden"></rect></g></svg></g></svg>